<svg width="17" height="17" viewBox="0 0 17 17" fill="none" xmlns="http://www.w3.org/2000/svg">
<circle cx="8" cy="8" r="8" fill="#0B0B0B"/>
<path fill-rule="evenodd" clip-rule="evenodd" d="M0 8.5C0 3.80563 3.80563 0 8.5 0C13.1944 0 17 3.80563 17 8.5C17 13.1944 13.1944 17 8.5 17C3.80563 17 0 13.1944 0 8.5ZM6.9953 2.85995C7.06102 2.81807 7.13435 2.78954 7.21109 2.77601C7.28784 2.76248 7.3665 2.76421 7.44258 2.7811C7.51865 2.79799 7.59066 2.82971 7.65447 2.87445C7.71828 2.91918 7.77265 2.97605 7.81447 3.04181L8.5 4.11954L9.18553 3.04181C9.27005 2.90907 9.40383 2.81534 9.55745 2.78123C9.71107 2.74712 9.87195 2.77544 10.0047 2.85995C10.1374 2.94447 10.2312 3.07825 10.2653 3.23187C10.2994 3.38549 10.2711 3.54637 10.1866 3.67912L9.20293 5.22414L11.9166 9.48837H12.8488C13.0061 9.48837 13.157 9.55085 13.2682 9.66207C13.3794 9.77328 13.4419 9.92412 13.4419 10.0814C13.4419 10.2387 13.3794 10.3895 13.2682 10.5007C13.157 10.6119 13.0061 10.6744 12.8488 10.6744H12.6709L13.3493 11.7395C13.3912 11.8052 13.4197 11.8785 13.4332 11.9553C13.4467 12.032 13.445 12.1107 13.4281 12.1867C13.4112 12.2628 13.3795 12.3348 13.3348 12.3986C13.2901 12.4624 13.2332 12.5168 13.1675 12.5587C13.1018 12.6005 13.0284 12.629 12.9517 12.6425C12.875 12.656 12.7963 12.6543 12.7202 12.6374C12.6442 12.6205 12.5722 12.5888 12.5084 12.5441C12.4446 12.4994 12.3902 12.4425 12.3483 12.3768L8.5 6.32874L6.48926 9.48837H9.68605C9.84333 9.48837 9.99416 9.55085 10.1054 9.66207C10.2166 9.77328 10.2791 9.92412 10.2791 10.0814C10.2791 10.2387 10.2166 10.3895 10.1054 10.5007C9.99416 10.6119 9.84333 10.6744 9.68605 10.6744H5.73493L4.65167 12.3768C4.60983 12.4425 4.55545 12.4994 4.49163 12.5441C4.42782 12.5888 4.35582 12.6205 4.27976 12.6374C4.20369 12.6543 4.12504 12.656 4.0483 12.6425C3.97157 12.629 3.89824 12.6005 3.83251 12.5587C3.76678 12.5168 3.70994 12.4624 3.66523 12.3986C3.62052 12.3348 3.58881 12.2628 3.57193 12.1867C3.55504 12.1107 3.5533 12.032 3.56681 11.9553C3.58032 11.8785 3.60881 11.8052 3.65065 11.7395L4.32907 10.6744H4.15116C3.99388 10.6744 3.84305 10.6119 3.73183 10.5007C3.62062 10.3895 3.55814 10.2387 3.55814 10.0814C3.55814 9.92412 3.62062 9.77328 3.73183 9.66207C3.84305 9.55085 3.99388 9.48837 4.15116 9.48837H5.08419L7.79707 5.22414L6.81344 3.67912C6.77155 3.6134 6.74303 3.54007 6.7295 3.46333C6.71597 3.38658 6.7177 3.30792 6.73459 3.23184C6.75148 3.15576 6.7832 3.08376 6.82793 3.01995C6.87267 2.95614 6.92954 2.90177 6.9953 2.85995Z" fill="white"/>
</svg>
