<svg width="18" height="18" viewBox="0 0 18 18" fill="none" xmlns="http://www.w3.org/2000/svg">
<path d="M4.25214 7.43589L6.54875 4.32862C8.03327 2.32008 8.77553 1.31581 9.46805 1.52803C10.1606 1.74026 10.1606 2.97199 10.1606 5.43546V5.66774C10.1606 6.55626 10.1606 7.00052 10.4445 7.27918L10.4595 7.29362C10.7495 7.56639 11.2119 7.56639 12.1367 7.56639C13.8008 7.56639 14.6329 7.56639 14.9141 8.0711C14.9188 8.07946 14.9233 8.08788 14.9277 8.09637C15.1932 8.60889 14.7114 9.26072 13.7478 10.5644L11.4512 13.6716C9.96668 15.6802 9.2244 16.6844 8.53188 16.4722C7.83936 16.26 7.83938 15.0282 7.83941 12.5647L7.83942 12.3326C7.83943 11.444 7.83944 10.9998 7.55553 10.7211L7.54051 10.7067C7.25048 10.4339 6.78809 10.4339 5.86331 10.4339C4.19916 10.4339 3.36709 10.4339 3.08587 9.92917C3.08122 9.92081 3.07669 9.91239 3.07229 9.9039C2.80683 9.39138 3.2886 8.73956 4.25214 7.43589Z" stroke="white" stroke-width="1.125"/>
</svg>
