<svg width="17" height="16" viewBox="0 0 17 16" fill="none" xmlns="http://www.w3.org/2000/svg">
<g clip-path="url(#clip0_0_8600)">
<path fill-rule="evenodd" clip-rule="evenodd" d="M5.06309 5.76804C5.1777 5.65778 5.33139 5.59753 5.4904 5.60053C5.64941 5.60353 5.80072 5.66953 5.91109 5.78404L8.87909 8.93444L11.8471 5.78404C11.901 5.72457 11.9664 5.67653 12.0392 5.64277C12.1121 5.609 12.191 5.59021 12.2712 5.5875C12.3515 5.58479 12.4315 5.59821 12.5064 5.62698C12.5814 5.65575 12.6498 5.69927 12.7077 5.75497C12.7655 5.81066 12.8116 5.87741 12.8432 5.95124C12.8747 6.02507 12.8912 6.10449 12.8915 6.18478C12.8918 6.26508 12.876 6.34463 12.845 6.41871C12.814 6.49278 12.7685 6.55989 12.7111 6.61604L9.31109 10.216C9.25512 10.2741 9.18802 10.3203 9.11379 10.3519C9.03957 10.3834 8.95974 10.3997 8.87909 10.3997C8.79844 10.3997 8.71861 10.3834 8.64439 10.3519C8.57016 10.3203 8.50306 10.2741 8.44709 10.216L5.04709 6.61604C4.93683 6.50144 4.87657 6.34774 4.87957 6.18873C4.88257 6.02972 4.94858 5.87841 5.06309 5.76804Z" fill="#808080"/>
</g>
<defs>
<clipPath id="clip0_0_8600">
<rect width="16" height="16" fill="white" transform="translate(0.879089)"/>
</clipPath>
</defs>
</svg>
