<svg width="24" height="24" viewBox="0 0 24 24" fill="none" xmlns="http://www.w3.org/2000/svg">
<path d="M10.1999 6.60002V8.40002H5.6999V18.3H15.5999V13.8H17.3999V19.2C17.3999 19.4387 17.3051 19.6676 17.1363 19.8364C16.9675 20.0052 16.7386 20.1 16.4999 20.1H4.7999C4.56121 20.1 4.33229 20.0052 4.16351 19.8364C3.99472 19.6676 3.8999 19.4387 3.8999 19.2V7.50002C3.8999 7.26133 3.99472 7.03241 4.16351 6.86363C4.33229 6.69485 4.56121 6.60002 4.7999 6.60002H10.1999ZM20.0999 3.90002V11.1H18.2999V6.97172L11.2862 13.9863L10.0136 12.7137L17.0264 5.70002H12.8999V3.90002H20.0999Z" fill="white"/>
</svg>
