<svg width="17" height="17" viewBox="0 0 17 17" fill="none" xmlns="http://www.w3.org/2000/svg">
<rect x="2" y="2" width="13" height="13" fill="black"/>
<path d="M8.5 6.392C8.08308 6.392 7.67552 6.51563 7.32886 6.74726C6.9822 6.97889 6.71201 7.30812 6.55246 7.6933C6.39291 8.07849 6.35117 8.50234 6.4325 8.91125C6.51384 9.32016 6.71461 9.69577 7.00942 9.99058C7.30423 10.2854 7.67984 10.4862 8.08875 10.5675C8.49766 10.6488 8.92151 10.6071 9.3067 10.4475C9.69188 10.288 10.0211 10.0178 10.2527 9.67114C10.4844 9.32448 10.608 8.91692 10.608 8.5C10.608 8.22317 10.5535 7.94906 10.4475 7.6933C10.3416 7.43755 10.1863 7.20516 9.99058 7.00942C9.79484 6.81367 9.56245 6.6584 9.3067 6.55246C9.05094 6.44652 8.77683 6.392 8.5 6.392ZM16.9405 4.3095C16.936 3.65309 16.8152 3.00269 16.5835 2.3885C16.4129 1.93907 16.1489 1.53093 15.809 1.19101C15.4691 0.851085 15.0609 0.58711 14.6115 0.4165C13.9973 0.184844 13.3469 0.0639718 12.6905 0.0594999C11.594 -5.69969e-08 11.271 0 8.5 0C5.729 0 5.406 -5.69969e-08 4.3095 0.0594999C3.65309 0.0639718 3.00269 0.184844 2.3885 0.4165C1.93907 0.58711 1.53093 0.851085 1.19101 1.19101C0.851085 1.53093 0.58711 1.93907 0.4165 2.3885C0.184844 3.00269 0.0639718 3.65309 0.0594999 4.3095C-5.69969e-08 5.406 0 5.729 0 8.5C0 11.271 -5.69969e-08 11.594 0.0594999 12.6905C0.0686493 13.3492 0.189358 14.0016 0.4165 14.62C0.586354 15.0674 0.850109 15.4732 1.19 15.81C1.52846 16.152 1.93748 16.4159 2.3885 16.5835C3.00269 16.8152 3.65309 16.936 4.3095 16.9405C5.406 17 5.729 17 8.5 17C11.271 17 11.594 17 12.6905 16.9405C13.3469 16.936 13.9973 16.8152 14.6115 16.5835C15.0625 16.4159 15.4715 16.152 15.81 15.81C16.1499 15.4732 16.4136 15.0674 16.5835 14.62C16.8149 14.0028 16.9358 13.3496 16.9405 12.6905C17 11.594 17 11.271 17 8.5C17 5.729 17 5.406 16.9405 4.3095ZM14.7815 11.1095C14.7542 11.634 14.6423 12.1507 14.45 12.6395C14.285 13.0472 14.0397 13.4176 13.7286 13.7286C13.4176 14.0397 13.0472 14.285 12.6395 14.45C12.1461 14.6316 11.6265 14.732 11.101 14.7475C10.4295 14.7475 10.251 14.7475 8.5 14.7475C6.749 14.7475 6.5705 14.7475 5.899 14.7475C5.37347 14.732 4.85392 14.6316 4.3605 14.45C3.93899 14.2934 3.55834 14.0435 3.247 13.719C2.93902 13.4141 2.70117 13.0457 2.55 12.6395C2.36772 12.1466 2.27002 11.6264 2.261 11.101C2.261 10.4295 2.261 10.251 2.261 8.5C2.261 6.749 2.261 6.5705 2.261 5.899C2.27002 5.37355 2.36772 4.8534 2.55 4.3605C2.70664 3.93899 2.95653 3.55834 3.281 3.247C3.58728 2.94068 3.95527 2.70308 4.3605 2.55C4.85392 2.36844 5.37347 2.26798 5.899 2.2525H8.5C8.5 2.2525 10.4295 2.2525 11.101 2.2525C11.6265 2.26798 12.1461 2.36844 12.6395 2.55C13.061 2.70664 13.4417 2.95653 13.753 3.281C14.061 3.58594 14.2988 3.95431 14.45 4.3605C14.6316 4.85392 14.732 5.37347 14.7475 5.899V8.5C14.7475 8.5 14.807 10.4295 14.7815 11.101V11.1095ZM13.4215 4.7855C13.3203 4.51094 13.1607 4.2616 12.9538 4.05468C12.7469 3.84777 12.4976 3.6882 12.223 3.587C11.846 3.45632 11.4489 3.39302 11.05 3.4C10.387 3.4 10.2 3.4 8.5 3.4C6.8 3.4 6.613 3.4 5.95 3.4C5.54903 3.40392 5.15191 3.47874 4.777 3.621C4.50664 3.71761 4.25994 3.87066 4.0533 4.06997C3.84665 4.26929 3.6848 4.5103 3.5785 4.777C3.45506 5.15556 3.39475 5.55186 3.4 5.95V8.5C3.4 8.5 3.4 10.387 3.4 11.05C3.40843 11.4505 3.4831 11.8469 3.621 12.223C3.7222 12.4976 3.88177 12.7469 4.08868 12.9538C4.2956 13.1607 4.54494 13.3203 4.8195 13.4215C5.18217 13.5549 5.56381 13.6295 5.95 13.6425H8.5C8.5 13.6425 10.387 13.6425 11.05 13.6425C11.451 13.6386 11.8481 13.5638 12.223 13.4215C12.4976 13.3203 12.7469 13.1607 12.9538 12.9538C13.1607 12.7469 13.3203 12.4976 13.4215 12.223C13.5638 11.8481 13.6386 11.451 13.6425 11.05C13.6425 10.387 13.6425 10.2 13.6425 8.5C13.6425 6.8 13.6425 6.613 13.6425 5.95C13.6427 5.54863 13.5678 5.15076 13.4215 4.777V4.7855ZM8.5 11.747C8.074 11.747 7.65218 11.663 7.25871 11.4997C6.86525 11.3364 6.50786 11.0971 6.20702 10.7955C5.90619 10.4938 5.66782 10.1358 5.50557 9.74193C5.34332 9.34804 5.26038 8.926 5.2615 8.5C5.2615 7.85744 5.45215 7.22933 5.80931 6.69518C6.16648 6.16103 6.67409 5.74486 7.2679 5.49936C7.86171 5.25385 8.515 5.19005 9.14509 5.31603C9.77518 5.442 10.3537 5.75209 10.8075 6.20705C11.2612 6.662 11.5698 7.24135 11.6941 7.87177C11.8185 8.50218 11.753 9.15531 11.5059 9.74847C11.2588 10.3416 10.8413 10.8482 10.3062 11.2039C9.77116 11.5597 9.14256 11.7487 8.5 11.747ZM11.9 5.8905C11.7121 5.87061 11.5382 5.78189 11.4118 5.64143C11.2855 5.50096 11.2155 5.3187 11.2155 5.12975C11.2155 4.9408 11.2855 4.75854 11.4118 4.61808C11.5382 4.47761 11.7121 4.38889 11.9 4.369C12.0879 4.38889 12.2618 4.47761 12.3882 4.61808C12.5145 4.75854 12.5845 4.9408 12.5845 5.12975C12.5845 5.3187 12.5145 5.50096 12.3882 5.64143C12.2618 5.78189 12.0879 5.87061 11.9 5.8905Z" fill="white"/>
</svg>
