<svg width="17" height="17" viewBox="0 0 17 17" fill="none" xmlns="http://www.w3.org/2000/svg">
<rect x="2" y="2" width="13" height="12" fill="black"/>
<path d="M15.7408 0H1.25493C0.562181 0 0 0.548958 0 1.22494V15.7734C0 16.4503 0.562181 17 1.25493 17H15.7408C16.434 17 17 16.4503 17 15.7734V1.22494C17 0.548958 16.434 0 15.7408 0ZM5.04192 14.4864H2.51931V6.37382H5.04192V14.4864ZM3.78061 5.26457C2.9724 5.26457 2.31908 4.6096 2.31908 3.8021C2.31908 2.99578 2.9724 2.34081 3.78061 2.34081C4.58693 2.34081 5.2419 2.99578 5.2419 3.8021C5.2419 4.6096 4.58693 5.26457 3.78061 5.26457ZM14.4854 14.4864H11.9668V10.5414C11.9668 9.60028 11.9484 8.39021 10.6562 8.39021C9.34386 8.39021 9.14388 9.41517 9.14388 10.4732V14.4866H6.62339V6.37382H9.04235V7.48165H9.07682C9.41351 6.84415 10.2361 6.17147 11.463 6.17147C14.0144 6.17147 14.4857 7.85117 14.4857 10.0364L14.4854 14.4864Z" fill="white"/>
</svg>
