<svg width="17" height="17" viewBox="0 0 17 17" fill="none" xmlns="http://www.w3.org/2000/svg">
<path d="M16 8.5L2 16L2 1L16 8.5Z" fill="black"/>
<path d="M1.59375 1.97525V15.0241C1.59384 15.0524 1.60228 15.08 1.61802 15.1036C1.63376 15.1271 1.6561 15.1455 1.68224 15.1564C1.70837 15.1672 1.73714 15.1702 1.76493 15.1648C1.79272 15.1594 1.8183 15.1459 1.83846 15.126L8.63281 8.5L1.83846 1.87332C1.8183 1.85344 1.79272 1.83996 1.76493 1.83456C1.73714 1.82916 1.70837 1.83209 1.68224 1.84298C1.6561 1.85386 1.63376 1.87222 1.61802 1.89575C1.60228 1.91929 1.59384 1.94694 1.59375 1.97525Z" fill="white"/>
<path d="M11.7361 5.71494L3.21688 1.02135L3.21157 1.01836C3.06481 0.938673 2.92535 1.13723 3.04555 1.25277L9.7237 7.6384L11.7361 5.71494Z" fill="white"/>
<path d="M2.79179 15.6848C2.67093 15.8004 2.81038 15.9989 2.9578 15.9192L2.96312 15.9162L11.4817 11.2227L9.46927 9.29853L2.79179 15.6848Z" fill="white"/>
<path d="M14.9208 7.66992L12.5418 6.35973L10.3049 8.5L12.5418 10.6393L14.9208 9.33008C15.568 8.97248 15.568 8.02752 14.9208 7.66992Z" fill="white"/>
</svg>
