<svg width="20" height="20" viewBox="0 0 20 20" fill="none" xmlns="http://www.w3.org/2000/svg">
<path d="M10 5C8.38094 5 6.94129 5.76908 6.02671 6.96421L7.5 8.4375H3.75V4.6875L5.13664 6.07414C6.28163 4.6575 8.03474 3.75 10 3.75C13.4517 3.75 16.25 6.54822 16.25 10H15C15 7.23857 12.7614 5 10 5ZM5 10C5 12.7614 7.23857 15 10 15C11.6191 15 13.0588 14.2309 13.9733 13.0358L12.5 11.5625H16.25V15.3125L14.8634 13.9259C13.7184 15.3425 11.9653 16.25 10 16.25C6.54822 16.25 3.75 13.4517 3.75 10H5Z" fill="white"/>
</svg>
