<svg width="25" height="20" viewBox="0 0 25 20" fill="none" xmlns="http://www.w3.org/2000/svg">
<path d="M19.6166 3.34538H24.8681V5.37387C24.8681 8.12448 22.6452 10.3477 19.8943 10.3477H19.6163V3.34538H19.6166ZM12.1423 0.400024H19.6166V19.5443H18.7276C13.3093 19.5443 12.2259 15.7653 12.2259 12.4033L12.1423 0.400024ZM0 4.73462C0 8.15235 2.44511 9.4026 5.16822 9.81959H0V19.6H4.97384C9.97519 19.6 10.5587 17.3772 10.5587 15.2654C10.5587 12.6813 8.78032 10.8755 6.02971 10.1805H10.5587V0.400024H5.58485C0.583497 0.400024 0 2.62289 0 4.73462Z" fill="white"/>
</svg>

